bw_sq_140_02
version=1
nRows=22
nColumns=46
inDegrees=yes
endheader
time	ground_force3_vx	ground_force3_vy	ground_force3_vz	ground_force3_px	ground_force3_py	ground_force3_pz	ground_torque3_x	ground_torque3_y	ground_torque3_z	ground_force5_vx	ground_force5_vy	ground_force5_vz	ground_force5_px	ground_force5_py	ground_force5_pz	ground_torque5_x	ground_torque5_y	ground_torque5_z	ground_force4_vx	ground_force4_vy	ground_force4_vz	ground_force4_px	ground_force4_py	ground_force4_pz	ground_torque4_x	ground_torque4_y	ground_torque4_z	ground_force1_vx	ground_force1_vy	ground_force1_vz	ground_force1_px	ground_force1_py	ground_force1_pz	ground_torque1_x	ground_torque1_y	ground_torque1_z	ground_force2_vx	ground_force2_vy	ground_force2_vz	ground_force2_px	ground_force2_py	ground_force2_pz	ground_torque2_x	ground_torque2_y	ground_torque2_z
1.757000	-0.000000	-0.000000	0.000000	0.200000	0.000000	-0.300000	0.000000	0.000000	-0.000000	-10.686913	368.707397	97.825089	0.204335	0.000000	-1.570556	0.000000	0.629929	0.000004	-2.841694	343.515930	-101.366966	0.197302	0.000000	-0.843918	0.000025	1.244310	0.000003	-0.000000	-0.000000	0.000000	0.200000	0.000000	0.904000	0.000000	0.000000	-0.000000	-0.000000	-0.000000	0.000000	0.400000	0.000000	0.302000	0.000000	0.000000	-0.000000	
1.758000	-0.000000	-0.000000	0.000000	0.200000	0.000000	-0.300000	0.000000	0.000000	-0.000000	-10.042061	367.109314	98.146828	0.203114	0.000000	-1.569296	0.000031	0.602481	0.000004	-2.680652	342.557281	-101.203369	0.197433	0.000000	-0.842825	0.000013	1.328915	0.000005	-0.000000	-0.000000	0.000000	0.200000	0.000000	0.904000	0.000000	0.000000	-0.000000	-0.000000	-0.000000	0.000000	0.400000	0.000000	0.302000	0.000000	0.000000	-0.000000	
1.759000	-0.000000	-0.000000	0.000000	0.200000	0.000000	-0.300000	0.000000	0.000000	-0.000000	-10.526209	370.300842	97.986633	0.204451	0.000000	-1.569070	0.000002	0.720097	0.000006	-3.490498	342.236725	-101.041817	0.197650	0.000000	-0.842925	0.000009	1.289911	0.000007	-0.000000	-0.000000	0.000000	0.200000	0.000000	0.904000	0.000000	0.000000	-0.000000	-0.000000	-0.000000	0.000000	0.400000	0.000000	0.302000	0.000000	0.000000	-0.000000	
1.760000	-0.000000	-0.000000	0.000000	0.200000	0.000000	-0.300000	0.000000	0.000000	-0.000000	-9.881866	368.390167	97.985283	0.204343	0.000000	-1.570424	0.000024	0.483317	0.000001	-2.357022	342.556274	-101.850616	0.197476	0.000000	-0.843638	0.000014	1.236870	0.000004	-0.000000	-0.000000	0.000000	0.200000	0.000000	0.904000	0.000000	0.000000	-0.000000	-0.000000	-0.000000	0.000000	0.400000	0.000000	0.302000	0.000000	0.000000	-0.000000	
1.761000	-0.000000	-0.000000	0.000000	0.200000	0.000000	-0.300000	0.000000	0.000000	-0.000000	-10.847615	367.752380	97.664215	0.204430	0.000000	-1.570244	0.000023	0.577257	0.000003	-2.841695	341.277344	-101.687012	0.197399	0.000000	-0.843393	0.000017	1.329048	0.000004	-0.000000	-0.000000	0.000000	0.200000	0.000000	0.904000	0.000000	0.000000	-0.000000	-0.000000	-0.000000	0.000000	0.400000	0.000000	0.302000	0.000000	0.000000	-0.000000	
1.762000	-0.000000	-0.000000	0.000000	0.200000	0.000000	-0.300000	0.000000	0.000000	-0.000000	-9.881358	368.387817	99.271591	0.203729	0.000000	-1.570600	0.000017	0.553292	0.000007	-3.004282	341.593872	-102.010132	0.197267	0.000000	-0.843316	0.000022	1.233708	0.000001	-0.000000	-0.000000	0.000000	0.200000	0.000000	0.904000	0.000000	0.000000	-0.000000	-0.000000	-0.000000	0.000000	0.400000	0.000000	0.302000	0.000000	0.000000	-0.000000	
1.763000	-0.000000	-0.000000	0.000000	0.200000	0.000000	-0.300000	0.000000	0.000000	-0.000000	-10.042570	367.113953	98.468231	0.203518	0.000000	-1.570263	0.000046	0.635875	0.000000	-2.031848	343.192017	-101.525467	0.197749	0.000000	-0.844066	0.000007	1.466327	0.000004	-0.000000	-0.000000	0.000000	0.200000	0.000000	0.904000	0.000000	0.000000	-0.000000	-0.000000	-0.000000	0.000000	0.400000	0.000000	0.302000	0.000000	0.000000	-0.000000	
1.764000	-0.000000	-0.000000	0.000000	0.200000	0.000000	-0.300000	0.000000	0.000000	-0.000000	-9.398738	368.389160	98.468231	0.204001	0.000000	-1.570027	0.000009	0.543255	0.000006	-2.357022	342.234009	-102.169640	0.197809	0.000000	-0.843807	0.000019	1.386278	0.000003	-0.000000	-0.000000	0.000000	0.200000	0.000000	0.904000	0.000000	0.000000	-0.000000	-0.000000	-0.000000	0.000000	0.400000	0.000000	0.302000	0.000000	0.000000	-0.000000	
1.765000	-0.000000	-0.000000	0.000000	0.200000	0.000000	-0.300000	0.000000	0.000000	-0.000000	-10.043079	368.389160	98.628769	0.203508	0.000000	-1.570009	0.000017	0.678924	0.000000	-2.033393	342.553528	-102.493774	0.197520	0.000000	-0.844452	0.000018	1.299016	-0.000001	-0.000000	-0.000000	0.000000	0.200000	0.000000	0.904000	0.000000	0.000000	-0.000000	-0.000000	-0.000000	0.000000	0.400000	0.000000	0.302000	0.000000	0.000000	-0.000000	
1.766000	-0.000000	-0.000000	0.000000	0.200000	0.000000	-0.300000	0.000000	0.000000	-0.000000	-9.237525	369.662720	98.789307	0.203806	0.000000	-1.569756	0.000026	0.477235	0.000001	-2.518065	343.836487	-102.492752	0.197462	0.000000	-0.843587	0.000014	1.333506	-0.000001	-0.000000	-0.000000	0.000000	0.200000	0.000000	0.904000	0.000000	0.000000	-0.000000	-0.000000	-0.000000	0.000000	0.400000	0.000000	0.302000	0.000000	0.000000	-0.000000	
1.767000	-0.000000	-0.000000	0.000000	0.200000	0.000000	-0.300000	0.000000	0.000000	-0.000000	-9.559951	367.111603	98.789307	0.203784	0.000000	-1.570560	0.000034	0.572789	0.000008	-2.033393	347.034729	-102.492752	0.197988	0.000000	-0.844844	0.000020	1.386423	-0.000001	-0.000000	-0.000000	0.000000	0.200000	0.000000	0.904000	0.000000	0.000000	-0.000000	-0.000000	-0.000000	0.000000	0.400000	0.000000	0.302000	0.000000	0.000000	-0.000000	
1.768000	-0.000000	-0.000000	0.000000	0.200000	0.000000	-0.300000	0.000000	0.000000	-0.000000	-9.076822	368.069611	98.628769	0.204351	0.000000	-1.570231	0.000027	0.469244	0.000004	-1.706674	342.236359	-102.490707	0.197457	0.000000	-0.843129	0.000022	1.554780	0.000005	-0.000000	-0.000000	0.000000	0.200000	0.000000	0.904000	0.000000	0.000000	-0.000000	-0.000000	-0.000000	0.000000	0.400000	0.000000	0.302000	0.000000	0.000000	-0.000000	
1.769000	-0.000000	-0.000000	0.000000	0.200000	0.000000	-0.300000	0.000000	0.000000	-0.000000	-10.848125	368.387177	98.467560	0.202988	0.000000	-1.571046	0.000026	0.769631	0.000003	-1.387678	343.197418	-103.296440	0.197617	0.000000	-0.843947	0.000022	1.375682	0.000003	-0.000000	-0.000000	0.000000	0.200000	0.000000	0.904000	0.000000	0.000000	-0.000000	-0.000000	-0.000000	0.000000	0.400000	0.000000	0.302000	0.000000	0.000000	-0.000000	
1.770000	-0.000000	-0.000000	0.000000	0.200000	0.000000	-0.300000	0.000000	0.000000	-0.000000	-9.881866	367.750397	98.950516	0.203743	0.000000	-1.569408	0.000035	0.644236	0.000004	-1.386133	344.156372	-102.812805	0.197288	0.000000	-0.844587	0.000011	1.428227	0.000001	-0.000000	-0.000000	0.000000	0.200000	0.000000	0.904000	0.000000	0.000000	-0.000000	-0.000000	-0.000000	0.000000	0.400000	0.000000	0.302000	0.000000	0.000000	-0.000000	
1.771000	-0.000000	-0.000000	0.000000	0.200000	0.000000	-0.300000	0.000000	0.000000	-0.000000	-9.721164	369.342834	98.628769	0.203026	0.000000	-1.571017	0.000034	0.714907	0.000000	-1.709763	344.475616	-103.459015	0.197576	0.000000	-0.845267	0.000020	1.360946	0.000004	-0.000000	-0.000000	0.000000	0.200000	0.000000	0.904000	0.000000	0.000000	-0.000000	-0.000000	-0.000000	0.000000	0.400000	0.000000	0.302000	0.000000	0.000000	-0.000000	
1.772000	-0.000000	-0.000000	0.000000	0.200000	0.000000	-0.300000	0.000000	0.000000	-0.000000	-8.754396	367.110962	98.629105	0.203478	0.000000	-1.570921	0.000029	0.514168	0.000004	-1.386134	344.790771	-103.940613	0.198402	0.000000	-0.844846	0.000010	1.521590	0.000007	-0.000000	-0.000000	0.000000	0.200000	0.000000	0.904000	0.000000	0.000000	-0.000000	-0.000000	-0.000000	0.000000	0.400000	0.000000	0.302000	0.000000	0.000000	-0.000000	
1.773000	-0.000000	-0.000000	0.000000	0.200000	0.000000	-0.300000	0.000000	0.000000	-0.000000	-9.560460	367.749725	98.788635	0.203374	0.000000	-1.569769	0.000019	0.593082	0.000003	-1.222002	345.116730	-102.973328	0.197873	0.000000	-0.844228	0.000011	1.613513	0.000002	-0.000000	-0.000000	0.000000	0.200000	0.000000	0.904000	0.000000	0.000000	-0.000000	-0.000000	-0.000000	0.000000	0.400000	0.000000	0.302000	0.000000	0.000000	-0.000000	
1.774000	-0.000000	-0.000000	0.000000	0.200000	0.000000	-0.300000	0.000000	0.000000	-0.000000	-9.721673	367.748077	98.788971	0.203148	0.000000	-1.569771	0.000013	0.696829	0.000001	-1.711308	344.488098	-103.296440	0.196693	0.000000	-0.843086	0.000024	1.259697	0.000006	-0.000000	-0.000000	0.000000	0.200000	0.000000	0.904000	0.000000	0.000000	-0.000000	-0.000000	-0.000000	0.000000	0.400000	0.000000	0.302000	0.000000	0.000000	-0.000000	
1.775000	-0.000000	-0.000000	0.000000	0.200000	0.000000	-0.300000	0.000000	0.000000	-0.000000	-9.399248	366.794739	99.271591	0.203293	0.000000	-1.571065	0.000042	0.665323	0.000002	-0.738874	342.879181	-103.617508	0.197371	0.000000	-0.844479	0.000021	1.491349	0.000000	-0.000000	-0.000000	0.000000	0.200000	0.000000	0.904000	0.000000	0.000000	-0.000000	-0.000000	-0.000000	0.000000	0.400000	0.000000	0.302000	0.000000	0.000000	-0.000000	
1.776000	-0.000000	-0.000000	0.000000	0.200000	0.000000	-0.300000	0.000000	0.000000	-0.000000	-8.432989	366.478149	99.110718	0.203721	0.000000	-1.572329	0.000002	0.485252	0.000003	-0.899917	342.878876	-104.103195	0.197129	0.000000	-0.843465	0.000023	1.390084	0.000003	-0.000000	-0.000000	0.000000	0.200000	0.000000	0.904000	0.000000	0.000000	-0.000000	-0.000000	-0.000000	0.000000	0.400000	0.000000	0.302000	0.000000	0.000000	-0.000000	
1.777000	-0.000000	-0.000000	0.000000	0.200000	0.000000	-0.300000	0.000000	0.000000	-0.000000	-8.433499	368.707397	98.788971	0.203610	0.000000	-1.570435	0.000018	0.507231	0.000007	-0.901461	345.124481	-103.780090	0.196812	0.000000	-0.843625	0.000002	1.332207	0.000004	-0.000000	-0.000000	0.000000	0.200000	0.000000	0.904000	0.000000	0.000000	-0.000000	-0.000000	-0.000000	0.000000	0.400000	0.000000	0.302000	0.000000	0.000000	-0.000000	
1.778000	-0.000000	-0.000000	0.000000	0.200000	0.000000	-0.300000	0.000000	0.000000	-0.000000	-8.593693	366.790070	98.949844	0.202994	0.000000	-1.570096	0.000023	0.498103	0.000002	-0.415244	346.085144	-103.618530	0.196554	0.000000	-0.844305	0.000012	1.386900	-0.000001	-0.000000	-0.000000	0.000000	0.200000	0.000000	0.904000	0.000000	0.000000	-0.000000	-0.000000	-0.000000	0.000000	0.400000	0.000000	0.302000	0.000000	0.000000	-0.000000	
